<?xml version="1.0" encoding="UTF-8"?>
<svg xmlns="http://www.w3.org/2000/svg" xmlns:xlink="http://www.w3.org/1999/xlink" width="600pt" height="300pt" viewBox="0 0 600 300" version="1.1">
<g id="surface1-7c5d66a4">
<rect x="0" y="0" width="600" height="300" style="fill:rgb(100%,100%,100%);fill-opacity:1;stroke:none;"/>
<path style=" stroke:none;fill-rule:nonzero;fill:rgb(100%,100%,100%);fill-opacity:1;" d="M 12 288 L 293.25 288 L 293.25 12 L 12 12 Z M 12 288 "/>
<path style=" stroke:none;fill-rule:nonzero;fill:rgb(100%,100%,100%);fill-opacity:1;" d="M 306.75 288 L 588 288 L 588 12 L 306.75 12 Z M 306.75 288 "/>
<path style=" stroke:none;fill-rule:nonzero;fill:rgb(100%,100%,0%);fill-opacity:1;" d="M 159.761719 150 C 159.761719 146.058594 156.566406 142.863281 152.625 142.863281 C 148.683594 142.863281 145.488281 146.058594 145.488281 150 C 145.488281 153.941406 148.683594 157.136719 152.625 157.136719 C 156.566406 157.136719 159.761719 153.941406 159.761719 150 Z M 159.761719 150 "/>
<path style=" stroke:none;fill-rule:nonzero;fill:rgb(100%,0%,0%);fill-opacity:1;" d="M 167.789062 150 C 167.789062 146.828125 163.03125 146.828125 163.03125 150 C 163.03125 153.171875 167.789062 153.171875 167.789062 150 Z M 167.789062 150 "/>
<path style=" stroke:none;fill-rule:nonzero;fill:rgb(100%,0%,0%);fill-opacity:1;" d="M 180.574219 150 C 180.574219 146.828125 175.8125 146.828125 175.8125 150 C 175.8125 153.171875 180.574219 153.171875 180.574219 150 Z M 180.574219 150 "/>
<path style=" stroke:none;fill-rule:nonzero;fill:rgb(0%,0%,100%);fill-opacity:1;" d="M 194.148438 150 C 194.148438 145.769531 187.804688 145.769531 187.804688 150 C 187.804688 154.230469 194.148438 154.230469 194.148438 150 Z M 194.148438 150 "/>
<path style=" stroke:none;fill-rule:nonzero;fill:rgb(100%,0%,0%);fill-opacity:1;" d="M 205.347656 150 C 205.347656 147.886719 202.175781 147.886719 202.175781 150 C 202.175781 152.113281 205.347656 152.113281 205.347656 150 Z M 205.347656 150 "/>
<path style=" stroke:none;fill-rule:nonzero;fill:rgb(100%,0%,0%);fill-opacity:1;" d="M 220.511719 150 C 220.511719 144.710938 212.578125 144.710938 212.578125 150 C 212.578125 155.289062 220.511719 155.289062 220.511719 150 Z M 220.511719 150 "/>
<path style=" stroke:none;fill-rule:nonzero;fill:rgb(100%,0%,0%);fill-opacity:1;" d="M 234.089844 150 C 234.089844 147.371094 231.957031 145.242188 229.328125 145.242188 C 226.703125 145.242188 224.570312 147.371094 224.570312 150 C 224.570312 152.628906 226.703125 154.757812 229.328125 154.757812 C 231.957031 154.757812 234.089844 152.628906 234.089844 150 Z M 234.089844 150 "/>
<path style=" stroke:none;fill-rule:nonzero;fill:rgb(100%,0%,0%);fill-opacity:1;" d="M 245.285156 150 C 245.285156 145.769531 238.941406 145.769531 238.941406 150 C 238.941406 154.230469 245.285156 154.230469 245.285156 150 Z M 245.285156 150 "/>
<path style=" stroke:none;fill-rule:nonzero;fill:rgb(100%,0%,0%);fill-opacity:1;" d="M 258.070312 150 C 258.070312 145.769531 251.726562 145.769531 251.726562 150 C 251.726562 154.230469 258.070312 154.230469 258.070312 150 Z M 258.070312 150 "/>
<path style=" stroke:none;fill-rule:nonzero;fill:rgb(100%,100%,0%);fill-opacity:1;" d="M 416.160156 150 C 416.160156 146.058594 412.964844 142.863281 409.023438 142.863281 C 405.082031 142.863281 401.882812 146.058594 401.882812 150 C 401.882812 153.941406 405.082031 157.136719 409.023438 157.136719 C 412.964844 157.136719 416.160156 153.941406 416.160156 150 Z M 416.160156 150 "/>
<path style=" stroke:none;fill-rule:nonzero;fill:rgb(100%,0%,0%);fill-opacity:1;" d="M 424.1875 150 C 424.1875 146.828125 419.425781 146.828125 419.425781 150 C 419.425781 153.171875 424.1875 153.171875 424.1875 150 Z M 424.1875 150 "/>
<path style=" stroke:none;fill-rule:nonzero;fill:rgb(100%,0%,0%);fill-opacity:1;" d="M 436.96875 150 C 436.96875 146.828125 432.210938 146.828125 432.210938 150 C 432.210938 153.171875 436.96875 153.171875 436.96875 150 Z M 436.96875 150 "/>
<path style=" stroke:none;fill-rule:nonzero;fill:rgb(0%,0%,100%);fill-opacity:1;" d="M 450.546875 150 C 450.546875 145.769531 444.203125 145.769531 444.203125 150 C 444.203125 154.230469 450.546875 154.230469 450.546875 150 Z M 450.546875 150 "/>
<path style=" stroke:none;fill-rule:nonzero;fill:rgb(100%,0%,0%);fill-opacity:1;" d="M 461.746094 150 C 461.746094 147.886719 458.574219 147.886719 458.574219 150 C 458.574219 152.113281 461.746094 152.113281 461.746094 150 Z M 461.746094 150 "/>
<path style=" stroke:none;fill-rule:nonzero;fill:rgb(100%,0%,0%);fill-opacity:1;" d="M 476.910156 150 C 476.910156 144.710938 468.976562 144.710938 468.976562 150 C 468.976562 155.289062 476.910156 155.289062 476.910156 150 Z M 476.910156 150 "/>
<path style=" stroke:none;fill-rule:nonzero;fill:rgb(100%,0%,0%);fill-opacity:1;" d="M 490.484375 150 C 490.484375 147.371094 488.355469 145.242188 485.726562 145.242188 C 483.097656 145.242188 480.96875 147.371094 480.96875 150 C 480.96875 152.628906 483.097656 154.757812 485.726562 154.757812 C 488.355469 154.757812 490.484375 152.628906 490.484375 150 Z M 490.484375 150 "/>
<path style=" stroke:none;fill-rule:nonzero;fill:rgb(100%,0%,0%);fill-opacity:1;" d="M 501.683594 150 C 501.683594 145.769531 495.339844 145.769531 495.339844 150 C 495.339844 154.230469 501.683594 154.230469 501.683594 150 Z M 501.683594 150 "/>
<path style=" stroke:none;fill-rule:nonzero;fill:rgb(100%,0%,0%);fill-opacity:1;" d="M 514.46875 150 C 514.46875 145.769531 508.121094 145.769531 508.121094 150 C 508.121094 154.230469 514.46875 154.230469 514.46875 150 Z M 514.46875 150 "/>
</g>
</svg>
