<?xml version="1.0" encoding="UTF-8"?>
<svg xmlns="http://www.w3.org/2000/svg" xmlns:xlink="http://www.w3.org/1999/xlink" width="600pt" height="300pt" viewBox="0 0 600 300" version="1.1">
<g id="surface1-1im5hAQf">
<rect x="0" y="0" width="600" height="300" style="fill:rgb(100%,100%,100%);fill-opacity:1;stroke:none;"/>
<path style=" stroke:none;fill-rule:nonzero;fill:rgb(100%,100%,100%);fill-opacity:1;" d="M 12 288 L 291 288 L 291 12 L 12 12 Z M 12 288 "/>
<path style=" stroke:none;fill-rule:nonzero;fill:rgb(100%,100%,100%);fill-opacity:1;" d="M 309 288 L 588 288 L 588 12 L 309 12 Z M 309 288 "/>
<path style=" stroke:none;fill-rule:nonzero;fill:rgb(100%,100%,0%);fill-opacity:1;" d="M 161.625 150 C 161.625 155.59375 157.09375 160.125 151.5 160.125 C 145.90625 160.125 141.375 155.59375 141.375 150 C 141.375 144.40625 145.90625 139.875 151.5 139.875 C 157.09375 139.875 161.625 144.40625 161.625 150 "/>
<path style=" stroke:none;fill-rule:nonzero;fill:rgb(100%,0%,0%);fill-opacity:1;" d="M 167.558594 150 C 167.558594 154.5 160.808594 154.5 160.808594 150 C 160.808594 145.5 167.558594 145.5 167.558594 150 "/>
<path style=" stroke:none;fill-rule:nonzero;fill:rgb(100%,0%,0%);fill-opacity:1;" d="M 180.238281 150 C 180.238281 154.5 173.488281 154.5 173.488281 150 C 173.488281 145.5 180.238281 145.5 180.238281 150 "/>
<path style=" stroke:none;fill-rule:nonzero;fill:rgb(0%,0%,100%);fill-opacity:1;" d="M 194.046875 150 C 194.046875 152.484375 192.03125 154.5 189.546875 154.5 C 187.058594 154.5 185.046875 152.484375 185.046875 150 C 185.046875 147.515625 187.058594 145.5 189.546875 145.5 C 192.03125 145.5 194.046875 147.515625 194.046875 150 "/>
<path style=" stroke:none;fill-rule:nonzero;fill:rgb(100%,0%,0%);fill-opacity:1;" d="M 204.476562 150 C 204.476562 153 199.976562 153 199.976562 150 C 199.976562 147 204.476562 147 204.476562 150 "/>
<path style=" stroke:none;fill-rule:nonzero;fill:rgb(100%,0%,0%);fill-opacity:1;" d="M 220.535156 150 C 220.535156 153.105469 218.015625 155.625 214.910156 155.625 C 211.800781 155.625 209.285156 153.105469 209.285156 150 C 209.285156 146.894531 211.800781 144.375 214.910156 144.375 C 218.015625 144.375 220.535156 146.894531 220.535156 150 "/>
<path style=" stroke:none;fill-rule:nonzero;fill:rgb(100%,0%,0%);fill-opacity:1;" d="M 234.339844 150 C 234.339844 153.726562 231.320312 156.75 227.589844 156.75 C 223.863281 156.75 220.839844 153.726562 220.839844 150 C 220.839844 146.273438 223.863281 143.25 227.589844 143.25 C 231.320312 143.25 234.339844 146.273438 234.339844 150 "/>
<path style=" stroke:none;fill-rule:nonzero;fill:rgb(100%,0%,0%);fill-opacity:1;" d="M 244.773438 150 C 244.773438 152.484375 242.757812 154.5 240.273438 154.5 C 237.789062 154.5 235.773438 152.484375 235.773438 150 C 235.773438 147.515625 237.789062 145.5 240.273438 145.5 C 242.757812 145.5 244.773438 147.515625 244.773438 150 "/>
<path style=" stroke:none;fill-rule:nonzero;fill:rgb(100%,0%,0%);fill-opacity:1;" d="M 257.453125 150 C 257.453125 152.484375 255.441406 154.5 252.953125 154.5 C 250.46875 154.5 248.453125 152.484375 248.453125 150 C 248.453125 147.515625 250.46875 145.5 252.953125 145.5 C 255.441406 145.5 257.453125 147.515625 257.453125 150 "/>
<path style=" stroke:none;fill-rule:nonzero;fill:rgb(100%,100%,0%);fill-opacity:1;" d="M 420.578125 150 C 420.578125 155.59375 416.046875 160.125 410.453125 160.125 C 404.863281 160.125 400.328125 155.59375 400.328125 150 C 400.328125 144.40625 404.863281 139.875 410.453125 139.875 C 416.046875 139.875 420.578125 144.40625 420.578125 150 "/>
<path style=" stroke:none;fill-rule:nonzero;fill:rgb(100%,0%,0%);fill-opacity:1;" d="M 426.511719 150 C 426.511719 154.5 419.761719 154.5 419.761719 150 C 419.761719 145.5 426.511719 145.5 426.511719 150 "/>
<path style=" stroke:none;fill-rule:nonzero;fill:rgb(100%,0%,0%);fill-opacity:1;" d="M 439.191406 150 C 439.191406 154.5 432.441406 154.5 432.441406 150 C 432.441406 145.5 439.191406 145.5 439.191406 150 "/>
<path style=" stroke:none;fill-rule:nonzero;fill:rgb(0%,0%,100%);fill-opacity:1;" d="M 453 150 C 453 152.484375 450.984375 154.5 448.5 154.5 C 446.015625 154.5 444 152.484375 444 150 C 444 147.515625 446.015625 145.5 448.5 145.5 C 450.984375 145.5 453 147.515625 453 150 "/>
<path style=" stroke:none;fill-rule:nonzero;fill:rgb(100%,0%,0%);fill-opacity:1;" d="M 463.433594 150 C 463.433594 153 458.933594 153 458.933594 150 C 458.933594 147 463.433594 147 463.433594 150 "/>
<path style=" stroke:none;fill-rule:nonzero;fill:rgb(100%,0%,0%);fill-opacity:1;" d="M 479.488281 150 C 479.488281 153.105469 476.96875 155.625 473.863281 155.625 C 470.757812 155.625 468.238281 153.105469 468.238281 150 C 468.238281 146.894531 470.757812 144.375 473.863281 144.375 C 476.96875 144.375 479.488281 146.894531 479.488281 150 "/>
<path style=" stroke:none;fill-rule:nonzero;fill:rgb(100%,0%,0%);fill-opacity:1;" d="M 493.296875 150 C 493.296875 153.726562 490.273438 156.75 486.546875 156.75 C 482.816406 156.75 479.796875 153.726562 479.796875 150 C 479.796875 146.273438 482.816406 143.25 486.546875 143.25 C 490.273438 143.25 493.296875 146.273438 493.296875 150 "/>
<path style=" stroke:none;fill-rule:nonzero;fill:rgb(100%,0%,0%);fill-opacity:1;" d="M 503.726562 150 C 503.726562 152.484375 501.710938 154.5 499.226562 154.5 C 496.742188 154.5 494.726562 152.484375 494.726562 150 C 494.726562 147.515625 496.742188 145.5 499.226562 145.5 C 501.710938 145.5 503.726562 147.515625 503.726562 150 "/>
<path style=" stroke:none;fill-rule:nonzero;fill:rgb(100%,0%,0%);fill-opacity:1;" d="M 516.410156 150 C 516.410156 152.484375 514.394531 154.5 511.910156 154.5 C 509.421875 154.5 507.410156 152.484375 507.410156 150 C 507.410156 147.515625 509.421875 145.5 511.910156 145.5 C 514.394531 145.5 516.410156 147.515625 516.410156 150 "/>
</g>
</svg>
