<?xml version="1.0" encoding="utf-8"?>
<svg xmlns="http://www.w3.org/2000/svg" xmlns:xlink="http://www.w3.org/1999/xlink" width="672" height="480" viewBox="0 0 2688 1920">
<defs>
  <clipPath id="clip800">
    <rect x="0" y="0" width="2688" height="1920"/>
  </clipPath>
</defs>
<path clip-path="url(#clip800)" d="M0 1920 L2688 1920 L2688 -4.26326e-14 L0 -4.26326e-14  Z" fill="#ffffff" fill-rule="evenodd" fill-opacity="1"/>
<defs>
  <clipPath id="clip801">
    <rect x="537" y="0" width="1883" height="1883"/>
  </clipPath>
</defs>
<path clip-path="url(#clip800)" d="M187.071 1800.78 L2640.76 1800.78 L2640.76 47.2441 L187.071 47.2441  Z" fill="#ffffff" fill-rule="evenodd" fill-opacity="1"/>
<defs>
  <clipPath id="clip802">
    <rect x="187" y="47" width="2455" height="1755"/>
  </clipPath>
</defs>
<polyline clip-path="url(#clip802)" style="stroke:#000000; stroke-linecap:round; stroke-linejoin:round; stroke-width:2; stroke-opacity:0.1; fill:none" points="448.421,1800.78 448.421,47.2441 "/>
<polyline clip-path="url(#clip802)" style="stroke:#000000; stroke-linecap:round; stroke-linejoin:round; stroke-width:2; stroke-opacity:0.1; fill:none" points="941.156,1800.78 941.156,47.2441 "/>
<polyline clip-path="url(#clip802)" style="stroke:#000000; stroke-linecap:round; stroke-linejoin:round; stroke-width:2; stroke-opacity:0.1; fill:none" points="1433.89,1800.78 1433.89,47.2441 "/>
<polyline clip-path="url(#clip802)" style="stroke:#000000; stroke-linecap:round; stroke-linejoin:round; stroke-width:2; stroke-opacity:0.1; fill:none" points="1926.63,1800.78 1926.63,47.2441 "/>
<polyline clip-path="url(#clip802)" style="stroke:#000000; stroke-linecap:round; stroke-linejoin:round; stroke-width:2; stroke-opacity:0.1; fill:none" points="2419.36,1800.78 2419.36,47.2441 "/>
<polyline clip-path="url(#clip800)" style="stroke:#000000; stroke-linecap:round; stroke-linejoin:round; stroke-width:4; stroke-opacity:1; fill:none" points="187.071,1800.78 2640.76,1800.78 "/>
<polyline clip-path="url(#clip800)" style="stroke:#000000; stroke-linecap:round; stroke-linejoin:round; stroke-width:4; stroke-opacity:1; fill:none" points="448.421,1800.78 448.421,1781.88 "/>
<polyline clip-path="url(#clip800)" style="stroke:#000000; stroke-linecap:round; stroke-linejoin:round; stroke-width:4; stroke-opacity:1; fill:none" points="941.156,1800.78 941.156,1781.88 "/>
<polyline clip-path="url(#clip800)" style="stroke:#000000; stroke-linecap:round; stroke-linejoin:round; stroke-width:4; stroke-opacity:1; fill:none" points="1433.89,1800.78 1433.89,1781.88 "/>
<polyline clip-path="url(#clip800)" style="stroke:#000000; stroke-linecap:round; stroke-linejoin:round; stroke-width:4; stroke-opacity:1; fill:none" points="1926.63,1800.78 1926.63,1781.88 "/>
<polyline clip-path="url(#clip800)" style="stroke:#000000; stroke-linecap:round; stroke-linejoin:round; stroke-width:4; stroke-opacity:1; fill:none" points="2419.36,1800.78 2419.36,1781.88 "/>
<path clip-path="url(#clip800)" d="M448.421 1834 Q444.809 1834 442.981 1837.57 Q441.175 1841.11 441.175 1848.24 Q441.175 1855.34 442.981 1858.91 Q444.809 1862.45 448.421 1862.45 Q452.055 1862.45 453.86 1858.91 Q455.689 1855.34 455.689 1848.24 Q455.689 1841.11 453.86 1837.57 Q452.055 1834 448.421 1834 M448.421 1830.3 Q454.231 1830.3 457.286 1834.9 Q460.365 1839.49 460.365 1848.24 Q460.365 1856.96 457.286 1861.57 Q454.231 1866.15 448.421 1866.15 Q442.61 1866.15 439.532 1861.57 Q436.476 1856.96 436.476 1848.24 Q436.476 1839.49 439.532 1834.9 Q442.61 1830.3 448.421 1830.3 Z" fill="#000000" fill-rule="nonzero" fill-opacity="1" /><path clip-path="url(#clip800)" d="M935.809 1861.55 L952.128 1861.55 L952.128 1865.48 L930.184 1865.48 L930.184 1861.55 Q932.846 1858.79 937.429 1854.16 Q942.036 1849.51 943.216 1848.17 Q945.461 1845.65 946.341 1843.91 Q947.244 1842.15 947.244 1840.46 Q947.244 1837.71 945.299 1835.97 Q943.378 1834.23 940.276 1834.23 Q938.077 1834.23 935.624 1835 Q933.193 1835.76 930.415 1837.31 L930.415 1832.59 Q933.239 1831.46 935.693 1830.88 Q938.147 1830.3 940.184 1830.3 Q945.554 1830.3 948.748 1832.98 Q951.943 1835.67 951.943 1840.16 Q951.943 1842.29 951.133 1844.21 Q950.346 1846.11 948.239 1848.7 Q947.661 1849.37 944.559 1852.59 Q941.457 1855.78 935.809 1861.55 Z" fill="#000000" fill-rule="nonzero" fill-opacity="1" /><path clip-path="url(#clip800)" d="M1436.9 1835 L1425.1 1853.45 L1436.9 1853.45 L1436.9 1835 M1435.67 1830.92 L1441.55 1830.92 L1441.55 1853.45 L1446.48 1853.45 L1446.48 1857.34 L1441.55 1857.34 L1441.55 1865.48 L1436.9 1865.48 L1436.9 1857.34 L1421.3 1857.34 L1421.3 1852.82 L1435.67 1830.92 Z" fill="#000000" fill-rule="nonzero" fill-opacity="1" /><path clip-path="url(#clip800)" d="M1927.03 1846.34 Q1923.88 1846.34 1922.03 1848.49 Q1920.2 1850.65 1920.2 1854.4 Q1920.2 1858.12 1922.03 1860.3 Q1923.88 1862.45 1927.03 1862.45 Q1930.18 1862.45 1932.01 1860.3 Q1933.86 1858.12 1933.86 1854.4 Q1933.86 1850.65 1932.01 1848.49 Q1930.18 1846.34 1927.03 1846.34 M1936.31 1831.69 L1936.31 1835.95 Q1934.55 1835.11 1932.75 1834.67 Q1930.97 1834.23 1929.21 1834.23 Q1924.58 1834.23 1922.12 1837.36 Q1919.69 1840.48 1919.35 1846.8 Q1920.71 1844.79 1922.77 1843.72 Q1924.83 1842.64 1927.31 1842.64 Q1932.52 1842.64 1935.53 1845.81 Q1938.56 1848.96 1938.56 1854.4 Q1938.56 1859.72 1935.41 1862.94 Q1932.26 1866.15 1927.03 1866.15 Q1921.04 1866.15 1917.87 1861.57 Q1914.69 1856.96 1914.69 1848.24 Q1914.69 1840.04 1918.58 1835.18 Q1922.47 1830.3 1929.02 1830.3 Q1930.78 1830.3 1932.56 1830.65 Q1934.37 1830.99 1936.31 1831.69 Z" fill="#000000" fill-rule="nonzero" fill-opacity="1" /><path clip-path="url(#clip800)" d="M2419.36 1849.07 Q2416.03 1849.07 2414.11 1850.85 Q2412.21 1852.64 2412.21 1855.76 Q2412.21 1858.89 2414.11 1860.67 Q2416.03 1862.45 2419.36 1862.45 Q2422.7 1862.45 2424.62 1860.67 Q2426.54 1858.86 2426.54 1855.76 Q2426.54 1852.64 2424.62 1850.85 Q2422.72 1849.07 2419.36 1849.07 M2414.69 1847.08 Q2411.68 1846.34 2409.99 1844.28 Q2408.32 1842.22 2408.32 1839.26 Q2408.32 1835.11 2411.26 1832.71 Q2414.22 1830.3 2419.36 1830.3 Q2424.52 1830.3 2427.46 1832.71 Q2430.4 1835.11 2430.4 1839.26 Q2430.4 1842.22 2428.71 1844.28 Q2427.05 1846.34 2424.06 1847.08 Q2427.44 1847.87 2429.32 1850.16 Q2431.21 1852.45 2431.21 1855.76 Q2431.21 1860.78 2428.14 1863.47 Q2425.08 1866.15 2419.36 1866.15 Q2413.64 1866.15 2410.57 1863.47 Q2407.51 1860.78 2407.51 1855.76 Q2407.51 1852.45 2409.41 1850.16 Q2411.31 1847.87 2414.69 1847.08 M2412.97 1839.7 Q2412.97 1842.38 2414.64 1843.89 Q2416.33 1845.39 2419.36 1845.39 Q2422.37 1845.39 2424.06 1843.89 Q2425.77 1842.38 2425.77 1839.7 Q2425.77 1837.01 2424.06 1835.51 Q2422.37 1834 2419.36 1834 Q2416.33 1834 2414.64 1835.51 Q2412.97 1837.01 2412.97 1839.7 Z" fill="#000000" fill-rule="nonzero" fill-opacity="1" /><polyline clip-path="url(#clip802)" style="stroke:#000000; stroke-linecap:round; stroke-linejoin:round; stroke-width:2; stroke-opacity:0.1; fill:none" points="187.071,1692.61 2640.76,1692.61 "/>
<polyline clip-path="url(#clip802)" style="stroke:#000000; stroke-linecap:round; stroke-linejoin:round; stroke-width:2; stroke-opacity:0.1; fill:none" points="187.071,1295.11 2640.76,1295.11 "/>
<polyline clip-path="url(#clip802)" style="stroke:#000000; stroke-linecap:round; stroke-linejoin:round; stroke-width:2; stroke-opacity:0.1; fill:none" points="187.071,897.609 2640.76,897.609 "/>
<polyline clip-path="url(#clip802)" style="stroke:#000000; stroke-linecap:round; stroke-linejoin:round; stroke-width:2; stroke-opacity:0.1; fill:none" points="187.071,500.107 2640.76,500.107 "/>
<polyline clip-path="url(#clip802)" style="stroke:#000000; stroke-linecap:round; stroke-linejoin:round; stroke-width:2; stroke-opacity:0.1; fill:none" points="187.071,102.604 2640.76,102.604 "/>
<polyline clip-path="url(#clip800)" style="stroke:#000000; stroke-linecap:round; stroke-linejoin:round; stroke-width:4; stroke-opacity:1; fill:none" points="187.071,1800.78 187.071,47.2441 "/>
<polyline clip-path="url(#clip800)" style="stroke:#000000; stroke-linecap:round; stroke-linejoin:round; stroke-width:4; stroke-opacity:1; fill:none" points="187.071,1692.61 205.968,1692.61 "/>
<polyline clip-path="url(#clip800)" style="stroke:#000000; stroke-linecap:round; stroke-linejoin:round; stroke-width:4; stroke-opacity:1; fill:none" points="187.071,1295.11 205.968,1295.11 "/>
<polyline clip-path="url(#clip800)" style="stroke:#000000; stroke-linecap:round; stroke-linejoin:round; stroke-width:4; stroke-opacity:1; fill:none" points="187.071,897.609 205.968,897.609 "/>
<polyline clip-path="url(#clip800)" style="stroke:#000000; stroke-linecap:round; stroke-linejoin:round; stroke-width:4; stroke-opacity:1; fill:none" points="187.071,500.107 205.968,500.107 "/>
<polyline clip-path="url(#clip800)" style="stroke:#000000; stroke-linecap:round; stroke-linejoin:round; stroke-width:4; stroke-opacity:1; fill:none" points="187.071,102.604 205.968,102.604 "/>
<path clip-path="url(#clip800)" d="M89.5751 1678.41 Q85.964 1678.41 84.1353 1681.98 Q82.3297 1685.52 82.3297 1692.65 Q82.3297 1699.76 84.1353 1703.32 Q85.964 1706.86 89.5751 1706.86 Q93.2093 1706.86 95.0148 1703.32 Q96.8435 1699.76 96.8435 1692.65 Q96.8435 1685.52 95.0148 1681.98 Q93.2093 1678.41 89.5751 1678.41 M89.5751 1674.71 Q95.3852 1674.71 98.4408 1679.32 Q101.519 1683.9 101.519 1692.65 Q101.519 1701.38 98.4408 1705.98 Q95.3852 1710.57 89.5751 1710.57 Q83.7649 1710.57 80.6862 1705.98 Q77.6307 1701.38 77.6307 1692.65 Q77.6307 1683.9 80.6862 1679.32 Q83.7649 1674.71 89.5751 1674.71 Z" fill="#000000" fill-rule="nonzero" fill-opacity="1" /><path clip-path="url(#clip800)" d="M109.737 1704.01 L114.621 1704.01 L114.621 1709.89 L109.737 1709.89 L109.737 1704.01 Z" fill="#000000" fill-rule="nonzero" fill-opacity="1" /><path clip-path="url(#clip800)" d="M134.806 1678.41 Q131.195 1678.41 129.367 1681.98 Q127.561 1685.52 127.561 1692.65 Q127.561 1699.76 129.367 1703.32 Q131.195 1706.86 134.806 1706.86 Q138.441 1706.86 140.246 1703.32 Q142.075 1699.76 142.075 1692.65 Q142.075 1685.52 140.246 1681.98 Q138.441 1678.41 134.806 1678.41 M134.806 1674.71 Q140.616 1674.71 143.672 1679.32 Q146.751 1683.9 146.751 1692.65 Q146.751 1701.38 143.672 1705.98 Q140.616 1710.57 134.806 1710.57 Q128.996 1710.57 125.917 1705.98 Q122.862 1701.38 122.862 1692.65 Q122.862 1683.9 125.917 1679.32 Q128.996 1674.71 134.806 1674.71 Z" fill="#000000" fill-rule="nonzero" fill-opacity="1" /><path clip-path="url(#clip800)" d="M84.5982 1308.46 L100.918 1308.46 L100.918 1312.39 L78.9733 1312.39 L78.9733 1308.46 Q81.6353 1305.7 86.2186 1301.07 Q90.8251 1296.42 92.0056 1295.08 Q94.251 1292.55 95.1306 1290.82 Q96.0334 1289.06 96.0334 1287.37 Q96.0334 1284.61 94.0889 1282.88 Q92.1676 1281.14 89.0658 1281.14 Q86.8667 1281.14 84.4131 1281.91 Q81.9825 1282.67 79.2047 1284.22 L79.2047 1279.5 Q82.0288 1278.36 84.4825 1277.79 Q86.9362 1277.21 88.9732 1277.21 Q94.3436 1277.21 97.538 1279.89 Q100.732 1282.58 100.732 1287.07 Q100.732 1289.2 99.9222 1291.12 Q99.1352 1293.02 97.0287 1295.61 Q96.45 1296.28 93.3482 1299.5 Q90.2464 1302.69 84.5982 1308.46 Z" fill="#000000" fill-rule="nonzero" fill-opacity="1" /><path clip-path="url(#clip800)" d="M110.732 1306.51 L115.617 1306.51 L115.617 1312.39 L110.732 1312.39 L110.732 1306.51 Z" fill="#000000" fill-rule="nonzero" fill-opacity="1" /><path clip-path="url(#clip800)" d="M125.848 1277.83 L144.204 1277.83 L144.204 1281.77 L130.13 1281.77 L130.13 1290.24 Q131.149 1289.89 132.167 1289.73 Q133.186 1289.54 134.204 1289.54 Q139.991 1289.54 143.371 1292.72 Q146.751 1295.89 146.751 1301.3 Q146.751 1306.88 143.278 1309.98 Q139.806 1313.06 133.487 1313.06 Q131.311 1313.06 129.042 1312.69 Q126.797 1312.32 124.39 1311.58 L124.39 1306.88 Q126.473 1308.02 128.695 1308.57 Q130.917 1309.13 133.394 1309.13 Q137.399 1309.13 139.737 1307.02 Q142.075 1304.91 142.075 1301.3 Q142.075 1297.69 139.737 1295.59 Q137.399 1293.48 133.394 1293.48 Q131.519 1293.48 129.644 1293.9 Q127.792 1294.31 125.848 1295.19 L125.848 1277.83 Z" fill="#000000" fill-rule="nonzero" fill-opacity="1" /><path clip-path="url(#clip800)" d="M79.6214 880.329 L97.9778 880.329 L97.9778 884.264 L83.9038 884.264 L83.9038 892.737 Q84.9223 892.389 85.9408 892.227 Q86.9593 892.042 87.9778 892.042 Q93.7649 892.042 97.1445 895.213 Q100.524 898.385 100.524 903.801 Q100.524 909.38 97.0519 912.482 Q93.5797 915.56 87.2603 915.56 Q85.0843 915.56 82.8158 915.19 Q80.5705 914.82 78.1631 914.079 L78.1631 909.38 Q80.2464 910.514 82.4686 911.07 Q84.6908 911.625 87.1677 911.625 Q91.1723 911.625 93.5102 909.519 Q95.8482 907.412 95.8482 903.801 Q95.8482 900.19 93.5102 898.084 Q91.1723 895.977 87.1677 895.977 Q85.2927 895.977 83.4177 896.394 Q81.5658 896.811 79.6214 897.69 L79.6214 880.329 Z" fill="#000000" fill-rule="nonzero" fill-opacity="1" /><path clip-path="url(#clip800)" d="M109.737 909.01 L114.621 909.01 L114.621 914.889 L109.737 914.889 L109.737 909.01 Z" fill="#000000" fill-rule="nonzero" fill-opacity="1" /><path clip-path="url(#clip800)" d="M134.806 883.408 Q131.195 883.408 129.367 886.973 Q127.561 890.514 127.561 897.644 Q127.561 904.75 129.367 908.315 Q131.195 911.857 134.806 911.857 Q138.441 911.857 140.246 908.315 Q142.075 904.75 142.075 897.644 Q142.075 890.514 140.246 886.973 Q138.441 883.408 134.806 883.408 M134.806 879.704 Q140.616 879.704 143.672 884.311 Q146.751 888.894 146.751 897.644 Q146.751 906.371 143.672 910.977 Q140.616 915.56 134.806 915.56 Q128.996 915.56 125.917 910.977 Q122.862 906.371 122.862 897.644 Q122.862 888.894 125.917 884.311 Q128.996 879.704 134.806 879.704 Z" fill="#000000" fill-rule="nonzero" fill-opacity="1" /><path clip-path="url(#clip800)" d="M79.3899 482.827 L101.612 482.827 L101.612 484.817 L89.0658 517.387 L84.1816 517.387 L95.9871 486.762 L79.3899 486.762 L79.3899 482.827 Z" fill="#000000" fill-rule="nonzero" fill-opacity="1" /><path clip-path="url(#clip800)" d="M110.732 511.507 L115.617 511.507 L115.617 517.387 L110.732 517.387 L110.732 511.507 Z" fill="#000000" fill-rule="nonzero" fill-opacity="1" /><path clip-path="url(#clip800)" d="M125.848 482.827 L144.204 482.827 L144.204 486.762 L130.13 486.762 L130.13 495.234 Q131.149 494.887 132.167 494.725 Q133.186 494.539 134.204 494.539 Q139.991 494.539 143.371 497.711 Q146.751 500.882 146.751 506.299 Q146.751 511.877 143.278 514.979 Q139.806 518.058 133.487 518.058 Q131.311 518.058 129.042 517.688 Q126.797 517.317 124.39 516.576 L124.39 511.877 Q126.473 513.012 128.695 513.567 Q130.917 514.123 133.394 514.123 Q137.399 514.123 139.737 512.016 Q142.075 509.91 142.075 506.299 Q142.075 502.688 139.737 500.581 Q137.399 498.475 133.394 498.475 Q131.519 498.475 129.644 498.891 Q127.792 499.308 125.848 500.188 L125.848 482.827 Z" fill="#000000" fill-rule="nonzero" fill-opacity="1" /><path clip-path="url(#clip800)" d="M50.2234 115.949 L57.8623 115.949 L57.8623 89.5832 L49.5521 91.2499 L49.5521 86.9906 L57.816 85.324 L62.4919 85.324 L62.4919 115.949 L70.1307 115.949 L70.1307 119.884 L50.2234 119.884 L50.2234 115.949 Z" fill="#000000" fill-rule="nonzero" fill-opacity="1" /><path clip-path="url(#clip800)" d="M89.5751 88.4027 Q85.964 88.4027 84.1353 91.9675 Q82.3297 95.5091 82.3297 102.639 Q82.3297 109.745 84.1353 113.31 Q85.964 116.852 89.5751 116.852 Q93.2093 116.852 95.0148 113.31 Q96.8435 109.745 96.8435 102.639 Q96.8435 95.5091 95.0148 91.9675 Q93.2093 88.4027 89.5751 88.4027 M89.5751 84.699 Q95.3852 84.699 98.4408 89.3054 Q101.519 93.8887 101.519 102.639 Q101.519 111.366 98.4408 115.972 Q95.3852 120.555 89.5751 120.555 Q83.7649 120.555 80.6862 115.972 Q77.6307 111.366 77.6307 102.639 Q77.6307 93.8887 80.6862 89.3054 Q83.7649 84.699 89.5751 84.699 Z" fill="#000000" fill-rule="nonzero" fill-opacity="1" /><path clip-path="url(#clip800)" d="M109.737 114.004 L114.621 114.004 L114.621 119.884 L109.737 119.884 L109.737 114.004 Z" fill="#000000" fill-rule="nonzero" fill-opacity="1" /><path clip-path="url(#clip800)" d="M134.806 88.4027 Q131.195 88.4027 129.367 91.9675 Q127.561 95.5091 127.561 102.639 Q127.561 109.745 129.367 113.31 Q131.195 116.852 134.806 116.852 Q138.441 116.852 140.246 113.31 Q142.075 109.745 142.075 102.639 Q142.075 95.5091 140.246 91.9675 Q138.441 88.4027 134.806 88.4027 M134.806 84.699 Q140.616 84.699 143.672 89.3054 Q146.751 93.8887 146.751 102.639 Q146.751 111.366 143.672 115.972 Q140.616 120.555 134.806 120.555 Q128.996 120.555 125.917 115.972 Q122.862 111.366 122.862 102.639 Q122.862 93.8887 125.917 89.3054 Q128.996 84.699 134.806 84.699 Z" fill="#000000" fill-rule="nonzero" fill-opacity="1" /><circle clip-path="url(#clip802)" cx="1412.94" cy="1510.86" r="36" fill="#000000" fill-rule="evenodd" fill-opacity="1" stroke="none"/>
<circle clip-path="url(#clip802)" cx="1029.52" cy="309.262" r="36" fill="#000000" fill-rule="evenodd" fill-opacity="1" stroke="none"/>
<circle clip-path="url(#clip802)" cx="1628.29" cy="813.018" r="36" fill="#000000" fill-rule="evenodd" fill-opacity="1" stroke="none"/>
<circle clip-path="url(#clip802)" cx="2271.66" cy="228.602" r="36" fill="#000000" fill-rule="evenodd" fill-opacity="1" stroke="none"/>
<circle clip-path="url(#clip802)" cx="1974.74" cy="842.633" r="36" fill="#000000" fill-rule="evenodd" fill-opacity="1" stroke="none"/>
<circle clip-path="url(#clip802)" cx="498.147" cy="1526.56" r="14.4" fill="#009af9" fill-rule="evenodd" fill-opacity="1" stroke="#000000" stroke-opacity="1" stroke-width="3.84"/>
<circle clip-path="url(#clip802)" cx="512.848" cy="1538.58" r="14.4" fill="#009af9" fill-rule="evenodd" fill-opacity="1" stroke="#000000" stroke-opacity="1" stroke-width="3.84"/>
<circle clip-path="url(#clip802)" cx="733.925" cy="1518.86" r="14.4" fill="#009af9" fill-rule="evenodd" fill-opacity="1" stroke="#000000" stroke-opacity="1" stroke-width="3.84"/>
<circle clip-path="url(#clip802)" cx="577.619" cy="1538.02" r="14.4" fill="#009af9" fill-rule="evenodd" fill-opacity="1" stroke="#000000" stroke-opacity="1" stroke-width="3.84"/>
<circle clip-path="url(#clip802)" cx="658.278" cy="1351.11" r="14.4" fill="#009af9" fill-rule="evenodd" fill-opacity="1" stroke="#000000" stroke-opacity="1" stroke-width="3.84"/>
<circle clip-path="url(#clip802)" cx="651.922" cy="1582.81" r="14.4" fill="#009af9" fill-rule="evenodd" fill-opacity="1" stroke="#000000" stroke-opacity="1" stroke-width="3.84"/>
<circle clip-path="url(#clip802)" cx="763.944" cy="1391.67" r="14.4" fill="#009af9" fill-rule="evenodd" fill-opacity="1" stroke="#000000" stroke-opacity="1" stroke-width="3.84"/>
<circle clip-path="url(#clip802)" cx="602.056" cy="1497.97" r="14.4" fill="#009af9" fill-rule="evenodd" fill-opacity="1" stroke="#000000" stroke-opacity="1" stroke-width="3.84"/>
<circle clip-path="url(#clip802)" cx="644.263" cy="1414.4" r="14.4" fill="#009af9" fill-rule="evenodd" fill-opacity="1" stroke="#000000" stroke-opacity="1" stroke-width="3.84"/>
<circle clip-path="url(#clip802)" cx="706.656" cy="1635.53" r="14.4" fill="#009af9" fill-rule="evenodd" fill-opacity="1" stroke="#000000" stroke-opacity="1" stroke-width="3.84"/>
<circle clip-path="url(#clip802)" cx="728.413" cy="1556.31" r="14.4" fill="#009af9" fill-rule="evenodd" fill-opacity="1" stroke="#000000" stroke-opacity="1" stroke-width="3.84"/>
<circle clip-path="url(#clip802)" cx="515.526" cy="1645.83" r="14.4" fill="#009af9" fill-rule="evenodd" fill-opacity="1" stroke="#000000" stroke-opacity="1" stroke-width="3.84"/>
<circle clip-path="url(#clip802)" cx="398.196" cy="1751.15" r="14.4" fill="#009af9" fill-rule="evenodd" fill-opacity="1" stroke="#000000" stroke-opacity="1" stroke-width="3.84"/>
<circle clip-path="url(#clip802)" cx="593.38" cy="1546.91" r="14.4" fill="#009af9" fill-rule="evenodd" fill-opacity="1" stroke="#000000" stroke-opacity="1" stroke-width="3.84"/>
<circle clip-path="url(#clip802)" cx="575.921" cy="1539.3" r="14.4" fill="#009af9" fill-rule="evenodd" fill-opacity="1" stroke="#000000" stroke-opacity="1" stroke-width="3.84"/>
<circle clip-path="url(#clip802)" cx="460.729" cy="1717.65" r="14.4" fill="#009af9" fill-rule="evenodd" fill-opacity="1" stroke="#000000" stroke-opacity="1" stroke-width="3.84"/>
<circle clip-path="url(#clip802)" cx="775.476" cy="1569.76" r="14.4" fill="#009af9" fill-rule="evenodd" fill-opacity="1" stroke="#000000" stroke-opacity="1" stroke-width="3.84"/>
<circle clip-path="url(#clip802)" cx="564.28" cy="1524.14" r="14.4" fill="#009af9" fill-rule="evenodd" fill-opacity="1" stroke="#000000" stroke-opacity="1" stroke-width="3.84"/>
<circle clip-path="url(#clip802)" cx="1003.3" cy="1546.61" r="14.4" fill="#009af9" fill-rule="evenodd" fill-opacity="1" stroke="#000000" stroke-opacity="1" stroke-width="3.84"/>
<circle clip-path="url(#clip802)" cx="602.786" cy="1575.3" r="14.4" fill="#009af9" fill-rule="evenodd" fill-opacity="1" stroke="#000000" stroke-opacity="1" stroke-width="3.84"/>
<circle clip-path="url(#clip802)" cx="882.831" cy="1060.56" r="14.4" fill="#e26f46" fill-rule="evenodd" fill-opacity="1" stroke="#000000" stroke-opacity="1" stroke-width="3.84"/>
<circle clip-path="url(#clip802)" cx="522.465" cy="933.096" r="14.4" fill="#e26f46" fill-rule="evenodd" fill-opacity="1" stroke="#000000" stroke-opacity="1" stroke-width="3.84"/>
<circle clip-path="url(#clip802)" cx="534.879" cy="1016.3" r="14.4" fill="#e26f46" fill-rule="evenodd" fill-opacity="1" stroke="#000000" stroke-opacity="1" stroke-width="3.84"/>
<circle clip-path="url(#clip802)" cx="809.931" cy="1145.99" r="14.4" fill="#e26f46" fill-rule="evenodd" fill-opacity="1" stroke="#000000" stroke-opacity="1" stroke-width="3.84"/>
<circle clip-path="url(#clip802)" cx="680.279" cy="1147.08" r="14.4" fill="#e26f46" fill-rule="evenodd" fill-opacity="1" stroke="#000000" stroke-opacity="1" stroke-width="3.84"/>
<circle clip-path="url(#clip802)" cx="570.785" cy="1145.47" r="14.4" fill="#e26f46" fill-rule="evenodd" fill-opacity="1" stroke="#000000" stroke-opacity="1" stroke-width="3.84"/>
<circle clip-path="url(#clip802)" cx="416.216" cy="1259.83" r="14.4" fill="#e26f46" fill-rule="evenodd" fill-opacity="1" stroke="#000000" stroke-opacity="1" stroke-width="3.84"/>
<circle clip-path="url(#clip802)" cx="815.099" cy="1191.87" r="14.4" fill="#e26f46" fill-rule="evenodd" fill-opacity="1" stroke="#000000" stroke-opacity="1" stroke-width="3.84"/>
<circle clip-path="url(#clip802)" cx="528.87" cy="1051.79" r="14.4" fill="#e26f46" fill-rule="evenodd" fill-opacity="1" stroke="#000000" stroke-opacity="1" stroke-width="3.84"/>
<circle clip-path="url(#clip802)" cx="868.699" cy="1235.51" r="14.4" fill="#e26f46" fill-rule="evenodd" fill-opacity="1" stroke="#000000" stroke-opacity="1" stroke-width="3.84"/>
<circle clip-path="url(#clip802)" cx="748.86" cy="1197.15" r="14.4" fill="#e26f46" fill-rule="evenodd" fill-opacity="1" stroke="#000000" stroke-opacity="1" stroke-width="3.84"/>
<circle clip-path="url(#clip802)" cx="1003.02" cy="1086.09" r="14.4" fill="#e26f46" fill-rule="evenodd" fill-opacity="1" stroke="#000000" stroke-opacity="1" stroke-width="3.84"/>
<circle clip-path="url(#clip802)" cx="504.377" cy="1073.12" r="14.4" fill="#e26f46" fill-rule="evenodd" fill-opacity="1" stroke="#000000" stroke-opacity="1" stroke-width="3.84"/>
<circle clip-path="url(#clip802)" cx="1046.25" cy="973.287" r="14.4" fill="#e26f46" fill-rule="evenodd" fill-opacity="1" stroke="#000000" stroke-opacity="1" stroke-width="3.84"/>
<circle clip-path="url(#clip802)" cx="736.984" cy="1240.53" r="14.4" fill="#e26f46" fill-rule="evenodd" fill-opacity="1" stroke="#000000" stroke-opacity="1" stroke-width="3.84"/>
<circle clip-path="url(#clip802)" cx="591.839" cy="787.512" r="14.4" fill="#e26f46" fill-rule="evenodd" fill-opacity="1" stroke="#000000" stroke-opacity="1" stroke-width="3.84"/>
<circle clip-path="url(#clip802)" cx="739.252" cy="1207.69" r="14.4" fill="#e26f46" fill-rule="evenodd" fill-opacity="1" stroke="#000000" stroke-opacity="1" stroke-width="3.84"/>
<circle clip-path="url(#clip802)" cx="873.316" cy="1112.13" r="14.4" fill="#e26f46" fill-rule="evenodd" fill-opacity="1" stroke="#000000" stroke-opacity="1" stroke-width="3.84"/>
<circle clip-path="url(#clip802)" cx="654.601" cy="1131.3" r="14.4" fill="#e26f46" fill-rule="evenodd" fill-opacity="1" stroke="#000000" stroke-opacity="1" stroke-width="3.84"/>
<circle clip-path="url(#clip802)" cx="256.515" cy="1187.83" r="14.4" fill="#e26f46" fill-rule="evenodd" fill-opacity="1" stroke="#000000" stroke-opacity="1" stroke-width="3.84"/>
<circle clip-path="url(#clip802)" cx="963.637" cy="1304.92" r="14.4" fill="#3da44d" fill-rule="evenodd" fill-opacity="1" stroke="#000000" stroke-opacity="1" stroke-width="3.84"/>
<circle clip-path="url(#clip802)" cx="983.358" cy="1320" r="14.4" fill="#3da44d" fill-rule="evenodd" fill-opacity="1" stroke="#000000" stroke-opacity="1" stroke-width="3.84"/>
<circle clip-path="url(#clip802)" cx="977.311" cy="1294.31" r="14.4" fill="#3da44d" fill-rule="evenodd" fill-opacity="1" stroke="#000000" stroke-opacity="1" stroke-width="3.84"/>
<circle clip-path="url(#clip802)" cx="929.342" cy="1296.79" r="14.4" fill="#3da44d" fill-rule="evenodd" fill-opacity="1" stroke="#000000" stroke-opacity="1" stroke-width="3.84"/>
<circle clip-path="url(#clip802)" cx="983.497" cy="1313.84" r="14.4" fill="#3da44d" fill-rule="evenodd" fill-opacity="1" stroke="#000000" stroke-opacity="1" stroke-width="3.84"/>
<circle clip-path="url(#clip802)" cx="965.429" cy="1322.18" r="14.4" fill="#3da44d" fill-rule="evenodd" fill-opacity="1" stroke="#000000" stroke-opacity="1" stroke-width="3.84"/>
<circle clip-path="url(#clip802)" cx="1013.66" cy="1297.72" r="14.4" fill="#3da44d" fill-rule="evenodd" fill-opacity="1" stroke="#000000" stroke-opacity="1" stroke-width="3.84"/>
<circle clip-path="url(#clip802)" cx="970.923" cy="1331.97" r="14.4" fill="#3da44d" fill-rule="evenodd" fill-opacity="1" stroke="#000000" stroke-opacity="1" stroke-width="3.84"/>
<circle clip-path="url(#clip802)" cx="972.477" cy="1320.72" r="14.4" fill="#3da44d" fill-rule="evenodd" fill-opacity="1" stroke="#000000" stroke-opacity="1" stroke-width="3.84"/>
<circle clip-path="url(#clip802)" cx="987.602" cy="1312.13" r="14.4" fill="#3da44d" fill-rule="evenodd" fill-opacity="1" stroke="#000000" stroke-opacity="1" stroke-width="3.84"/>
<circle clip-path="url(#clip802)" cx="927.028" cy="1300.37" r="14.4" fill="#3da44d" fill-rule="evenodd" fill-opacity="1" stroke="#000000" stroke-opacity="1" stroke-width="3.84"/>
<circle clip-path="url(#clip802)" cx="948.769" cy="1303.16" r="14.4" fill="#3da44d" fill-rule="evenodd" fill-opacity="1" stroke="#000000" stroke-opacity="1" stroke-width="3.84"/>
<circle clip-path="url(#clip802)" cx="960.478" cy="1306.95" r="14.4" fill="#3da44d" fill-rule="evenodd" fill-opacity="1" stroke="#000000" stroke-opacity="1" stroke-width="3.84"/>
<circle clip-path="url(#clip802)" cx="976.164" cy="1311.41" r="14.4" fill="#3da44d" fill-rule="evenodd" fill-opacity="1" stroke="#000000" stroke-opacity="1" stroke-width="3.84"/>
<circle clip-path="url(#clip802)" cx="950.496" cy="1267.37" r="14.4" fill="#3da44d" fill-rule="evenodd" fill-opacity="1" stroke="#000000" stroke-opacity="1" stroke-width="3.84"/>
<circle clip-path="url(#clip802)" cx="953.762" cy="1350.68" r="14.4" fill="#3da44d" fill-rule="evenodd" fill-opacity="1" stroke="#000000" stroke-opacity="1" stroke-width="3.84"/>
<circle clip-path="url(#clip802)" cx="986.565" cy="1314.89" r="14.4" fill="#3da44d" fill-rule="evenodd" fill-opacity="1" stroke="#000000" stroke-opacity="1" stroke-width="3.84"/>
<circle clip-path="url(#clip802)" cx="960.095" cy="1321.7" r="14.4" fill="#3da44d" fill-rule="evenodd" fill-opacity="1" stroke="#000000" stroke-opacity="1" stroke-width="3.84"/>
<circle clip-path="url(#clip802)" cx="918.742" cy="1324.94" r="14.4" fill="#3da44d" fill-rule="evenodd" fill-opacity="1" stroke="#000000" stroke-opacity="1" stroke-width="3.84"/>
<circle clip-path="url(#clip802)" cx="942.092" cy="1339.26" r="14.4" fill="#3da44d" fill-rule="evenodd" fill-opacity="1" stroke="#000000" stroke-opacity="1" stroke-width="3.84"/>
<circle clip-path="url(#clip802)" cx="2358.01" cy="641.677" r="14.4" fill="#c271d2" fill-rule="evenodd" fill-opacity="1" stroke="#000000" stroke-opacity="1" stroke-width="3.84"/>
<circle clip-path="url(#clip802)" cx="2361.76" cy="630.662" r="14.4" fill="#c271d2" fill-rule="evenodd" fill-opacity="1" stroke="#000000" stroke-opacity="1" stroke-width="3.84"/>
<circle clip-path="url(#clip802)" cx="2369.88" cy="708.498" r="14.4" fill="#c271d2" fill-rule="evenodd" fill-opacity="1" stroke="#000000" stroke-opacity="1" stroke-width="3.84"/>
<circle clip-path="url(#clip802)" cx="2478.53" cy="609.339" r="14.4" fill="#c271d2" fill-rule="evenodd" fill-opacity="1" stroke="#000000" stroke-opacity="1" stroke-width="3.84"/>
<circle clip-path="url(#clip802)" cx="2291.32" cy="677.823" r="14.4" fill="#c271d2" fill-rule="evenodd" fill-opacity="1" stroke="#000000" stroke-opacity="1" stroke-width="3.84"/>
<circle clip-path="url(#clip802)" cx="2059.18" cy="676.396" r="14.4" fill="#c271d2" fill-rule="evenodd" fill-opacity="1" stroke="#000000" stroke-opacity="1" stroke-width="3.84"/>
<circle clip-path="url(#clip802)" cx="2492" cy="734.212" r="14.4" fill="#c271d2" fill-rule="evenodd" fill-opacity="1" stroke="#000000" stroke-opacity="1" stroke-width="3.84"/>
<circle clip-path="url(#clip802)" cx="2169.13" cy="911.242" r="14.4" fill="#c271d2" fill-rule="evenodd" fill-opacity="1" stroke="#000000" stroke-opacity="1" stroke-width="3.84"/>
<circle clip-path="url(#clip802)" cx="2571.31" cy="775.21" r="14.4" fill="#c271d2" fill-rule="evenodd" fill-opacity="1" stroke="#000000" stroke-opacity="1" stroke-width="3.84"/>
<circle clip-path="url(#clip802)" cx="2245.49" cy="760.881" r="14.4" fill="#c271d2" fill-rule="evenodd" fill-opacity="1" stroke="#000000" stroke-opacity="1" stroke-width="3.84"/>
<circle clip-path="url(#clip802)" cx="2186.4" cy="744.137" r="14.4" fill="#c271d2" fill-rule="evenodd" fill-opacity="1" stroke="#000000" stroke-opacity="1" stroke-width="3.84"/>
<circle clip-path="url(#clip802)" cx="2131.9" cy="626.139" r="14.4" fill="#c271d2" fill-rule="evenodd" fill-opacity="1" stroke="#000000" stroke-opacity="1" stroke-width="3.84"/>
<circle clip-path="url(#clip802)" cx="2414.31" cy="685.237" r="14.4" fill="#c271d2" fill-rule="evenodd" fill-opacity="1" stroke="#000000" stroke-opacity="1" stroke-width="3.84"/>
<circle clip-path="url(#clip802)" cx="2258" cy="626.445" r="14.4" fill="#c271d2" fill-rule="evenodd" fill-opacity="1" stroke="#000000" stroke-opacity="1" stroke-width="3.84"/>
<circle clip-path="url(#clip802)" cx="2411.57" cy="833.751" r="14.4" fill="#c271d2" fill-rule="evenodd" fill-opacity="1" stroke="#000000" stroke-opacity="1" stroke-width="3.84"/>
<circle clip-path="url(#clip802)" cx="2100.09" cy="593.022" r="14.4" fill="#c271d2" fill-rule="evenodd" fill-opacity="1" stroke="#000000" stroke-opacity="1" stroke-width="3.84"/>
<circle clip-path="url(#clip802)" cx="2376.61" cy="452.317" r="14.4" fill="#c271d2" fill-rule="evenodd" fill-opacity="1" stroke="#000000" stroke-opacity="1" stroke-width="3.84"/>
<circle clip-path="url(#clip802)" cx="2249.5" cy="562.627" r="14.4" fill="#c271d2" fill-rule="evenodd" fill-opacity="1" stroke="#000000" stroke-opacity="1" stroke-width="3.84"/>
<circle clip-path="url(#clip802)" cx="2484.54" cy="754.367" r="14.4" fill="#c271d2" fill-rule="evenodd" fill-opacity="1" stroke="#000000" stroke-opacity="1" stroke-width="3.84"/>
<circle clip-path="url(#clip802)" cx="2374.92" cy="668.496" r="14.4" fill="#c271d2" fill-rule="evenodd" fill-opacity="1" stroke="#000000" stroke-opacity="1" stroke-width="3.84"/>
<circle clip-path="url(#clip802)" cx="1115.18" cy="476.114" r="14.4" fill="#ac8d18" fill-rule="evenodd" fill-opacity="1" stroke="#000000" stroke-opacity="1" stroke-width="3.84"/>
<circle clip-path="url(#clip802)" cx="1934.92" cy="656.772" r="14.4" fill="#ac8d18" fill-rule="evenodd" fill-opacity="1" stroke="#000000" stroke-opacity="1" stroke-width="3.84"/>
<circle clip-path="url(#clip802)" cx="1926.75" cy="475.608" r="14.4" fill="#ac8d18" fill-rule="evenodd" fill-opacity="1" stroke="#000000" stroke-opacity="1" stroke-width="3.84"/>
<circle clip-path="url(#clip802)" cx="1682.37" cy="529.589" r="14.4" fill="#ac8d18" fill-rule="evenodd" fill-opacity="1" stroke="#000000" stroke-opacity="1" stroke-width="3.84"/>
<circle clip-path="url(#clip802)" cx="1827.3" cy="299.67" r="14.4" fill="#ac8d18" fill-rule="evenodd" fill-opacity="1" stroke="#000000" stroke-opacity="1" stroke-width="3.84"/>
<circle clip-path="url(#clip802)" cx="1602.03" cy="534.714" r="14.4" fill="#ac8d18" fill-rule="evenodd" fill-opacity="1" stroke="#000000" stroke-opacity="1" stroke-width="3.84"/>
<circle clip-path="url(#clip802)" cx="1825.45" cy="211.829" r="14.4" fill="#ac8d18" fill-rule="evenodd" fill-opacity="1" stroke="#000000" stroke-opacity="1" stroke-width="3.84"/>
<circle clip-path="url(#clip802)" cx="1951.89" cy="96.8724" r="14.4" fill="#ac8d18" fill-rule="evenodd" fill-opacity="1" stroke="#000000" stroke-opacity="1" stroke-width="3.84"/>
<circle clip-path="url(#clip802)" cx="1935.93" cy="277.646" r="14.4" fill="#ac8d18" fill-rule="evenodd" fill-opacity="1" stroke="#000000" stroke-opacity="1" stroke-width="3.84"/>
<circle clip-path="url(#clip802)" cx="1766.98" cy="758.746" r="14.4" fill="#ac8d18" fill-rule="evenodd" fill-opacity="1" stroke="#000000" stroke-opacity="1" stroke-width="3.84"/>
<circle clip-path="url(#clip802)" cx="1802.93" cy="494.502" r="14.4" fill="#ac8d18" fill-rule="evenodd" fill-opacity="1" stroke="#000000" stroke-opacity="1" stroke-width="3.84"/>
<circle clip-path="url(#clip802)" cx="1262.8" cy="303.341" r="14.4" fill="#ac8d18" fill-rule="evenodd" fill-opacity="1" stroke="#000000" stroke-opacity="1" stroke-width="3.84"/>
<circle clip-path="url(#clip802)" cx="1807.53" cy="846.407" r="14.4" fill="#ac8d18" fill-rule="evenodd" fill-opacity="1" stroke="#000000" stroke-opacity="1" stroke-width="3.84"/>
<circle clip-path="url(#clip802)" cx="1557.49" cy="233.116" r="14.4" fill="#ac8d18" fill-rule="evenodd" fill-opacity="1" stroke="#000000" stroke-opacity="1" stroke-width="3.84"/>
<circle clip-path="url(#clip802)" cx="1560.52" cy="309.822" r="14.4" fill="#ac8d18" fill-rule="evenodd" fill-opacity="1" stroke="#000000" stroke-opacity="1" stroke-width="3.84"/>
<circle clip-path="url(#clip802)" cx="2006.82" cy="342.581" r="14.4" fill="#ac8d18" fill-rule="evenodd" fill-opacity="1" stroke="#000000" stroke-opacity="1" stroke-width="3.84"/>
<circle clip-path="url(#clip802)" cx="1169.29" cy="768.153" r="14.4" fill="#ac8d18" fill-rule="evenodd" fill-opacity="1" stroke="#000000" stroke-opacity="1" stroke-width="3.84"/>
<circle clip-path="url(#clip802)" cx="1404.11" cy="311.454" r="14.4" fill="#ac8d18" fill-rule="evenodd" fill-opacity="1" stroke="#000000" stroke-opacity="1" stroke-width="3.84"/>
<circle clip-path="url(#clip802)" cx="1675.43" cy="650.569" r="14.4" fill="#ac8d18" fill-rule="evenodd" fill-opacity="1" stroke="#000000" stroke-opacity="1" stroke-width="3.84"/>
<circle clip-path="url(#clip802)" cx="1355.07" cy="417.016" r="14.4" fill="#ac8d18" fill-rule="evenodd" fill-opacity="1" stroke="#000000" stroke-opacity="1" stroke-width="3.84"/>
<path clip-path="url(#clip800)" d="M268.86 209.375 L869.806 209.375 L869.806 105.695 L268.86 105.695  Z" fill="#ffffff" fill-rule="evenodd" fill-opacity="1"/>
<polyline clip-path="url(#clip800)" style="stroke:#000000; stroke-linecap:round; stroke-linejoin:round; stroke-width:4; stroke-opacity:1; fill:none" points="268.86,209.375 869.806,209.375 869.806,105.695 268.86,105.695 268.86,209.375 "/>
<circle clip-path="url(#clip800)" cx="377.913" cy="157.535" r="21.9429" fill="#000000" fill-rule="evenodd" fill-opacity="1" stroke="none"/>
<path clip-path="url(#clip800)" d="M514.836 142.917 L514.836 147.848 Q512.475 145.649 509.789 144.561 Q507.127 143.473 504.118 143.473 Q498.192 143.473 495.044 147.107 Q491.896 150.718 491.896 157.57 Q491.896 164.399 495.044 168.033 Q498.192 171.644 504.118 171.644 Q507.127 171.644 509.789 170.556 Q512.475 169.468 514.836 167.269 L514.836 172.153 Q512.382 173.82 509.627 174.653 Q506.896 175.487 503.84 175.487 Q495.993 175.487 491.479 170.695 Q486.966 165.88 486.966 157.57 Q486.966 149.237 491.479 144.445 Q495.993 139.63 503.84 139.63 Q506.942 139.63 509.674 140.464 Q512.428 141.274 514.836 142.917 Z" fill="#000000" fill-rule="nonzero" fill-opacity="1" /><path clip-path="url(#clip800)" d="M521.873 138.797 L526.132 138.797 L526.132 174.815 L521.873 174.815 L521.873 138.797 Z" fill="#000000" fill-rule="nonzero" fill-opacity="1" /><path clip-path="url(#clip800)" d="M534.604 164.584 L534.604 148.889 L538.863 148.889 L538.863 164.422 Q538.863 168.102 540.299 169.954 Q541.734 171.783 544.604 171.783 Q548.053 171.783 550.044 169.584 Q552.058 167.385 552.058 163.588 L552.058 148.889 L556.317 148.889 L556.317 174.815 L552.058 174.815 L552.058 170.834 Q550.507 173.195 548.447 174.352 Q546.41 175.487 543.701 175.487 Q539.234 175.487 536.919 172.709 Q534.604 169.931 534.604 164.584 M545.322 148.264 L545.322 148.264 Z" fill="#000000" fill-rule="nonzero" fill-opacity="1" /><path clip-path="url(#clip800)" d="M581.618 149.653 L581.618 153.681 Q579.812 152.755 577.868 152.292 Q575.923 151.829 573.84 151.829 Q570.669 151.829 569.072 152.801 Q567.498 153.774 567.498 155.718 Q567.498 157.2 568.632 158.056 Q569.766 158.889 573.192 159.653 L574.65 159.977 Q579.187 160.95 581.085 162.732 Q583.007 164.491 583.007 167.663 Q583.007 171.274 580.136 173.38 Q577.289 175.487 572.289 175.487 Q570.206 175.487 567.937 175.07 Q565.692 174.676 563.192 173.866 L563.192 169.468 Q565.553 170.695 567.845 171.32 Q570.136 171.922 572.382 171.922 Q575.391 171.922 577.011 170.903 Q578.632 169.862 578.632 167.987 Q578.632 166.25 577.451 165.325 Q576.294 164.399 572.335 163.542 L570.854 163.195 Q566.896 162.362 565.136 160.649 Q563.377 158.913 563.377 155.903 Q563.377 152.246 565.97 150.255 Q568.562 148.264 573.331 148.264 Q575.692 148.264 577.775 148.612 Q579.859 148.959 581.618 149.653 Z" fill="#000000" fill-rule="nonzero" fill-opacity="1" /><path clip-path="url(#clip800)" d="M594.002 141.528 L594.002 148.889 L602.775 148.889 L602.775 152.2 L594.002 152.2 L594.002 166.274 Q594.002 169.445 594.858 170.348 Q595.738 171.25 598.4 171.25 L602.775 171.25 L602.775 174.815 L598.4 174.815 Q593.47 174.815 591.595 172.987 Q589.72 171.135 589.72 166.274 L589.72 152.2 L586.595 152.2 L586.595 148.889 L589.72 148.889 L589.72 141.528 L594.002 141.528 Z" fill="#000000" fill-rule="nonzero" fill-opacity="1" /><path clip-path="url(#clip800)" d="M630.553 160.788 L630.553 162.871 L610.97 162.871 Q611.247 167.269 613.608 169.584 Q615.993 171.875 620.229 171.875 Q622.682 171.875 624.974 171.274 Q627.289 170.672 629.557 169.468 L629.557 173.496 Q627.266 174.468 624.858 174.977 Q622.451 175.487 619.974 175.487 Q613.77 175.487 610.136 171.875 Q606.525 168.264 606.525 162.107 Q606.525 155.741 609.951 152.014 Q613.4 148.264 619.233 148.264 Q624.465 148.264 627.497 151.644 Q630.553 155.001 630.553 160.788 M626.293 159.538 Q626.247 156.042 624.326 153.959 Q622.428 151.876 619.28 151.876 Q615.715 151.876 613.562 153.889 Q611.432 155.903 611.108 159.561 L626.293 159.538 Z" fill="#000000" fill-rule="nonzero" fill-opacity="1" /><path clip-path="url(#clip800)" d="M652.567 152.871 Q651.849 152.454 650.992 152.269 Q650.159 152.061 649.141 152.061 Q645.53 152.061 643.585 154.422 Q641.664 156.76 641.664 161.158 L641.664 174.815 L637.381 174.815 L637.381 148.889 L641.664 148.889 L641.664 152.917 Q643.006 150.556 645.159 149.422 Q647.312 148.264 650.391 148.264 Q650.83 148.264 651.363 148.334 Q651.895 148.38 652.543 148.496 L652.567 152.871 Z" fill="#000000" fill-rule="nonzero" fill-opacity="1" /><path clip-path="url(#clip800)" d="M690.761 149.885 L690.761 153.866 Q688.955 152.871 687.127 152.385 Q685.321 151.876 683.469 151.876 Q679.326 151.876 677.034 154.514 Q674.742 157.13 674.742 161.876 Q674.742 166.621 677.034 169.26 Q679.326 171.875 683.469 171.875 Q685.321 171.875 687.127 171.389 Q688.955 170.88 690.761 169.885 L690.761 173.82 Q688.978 174.653 687.057 175.07 Q685.159 175.487 683.006 175.487 Q677.15 175.487 673.701 171.806 Q670.252 168.125 670.252 161.876 Q670.252 155.533 673.724 151.899 Q677.219 148.264 683.284 148.264 Q685.252 148.264 687.127 148.681 Q689.001 149.075 690.761 149.885 Z" fill="#000000" fill-rule="nonzero" fill-opacity="1" /><path clip-path="url(#clip800)" d="M720.344 160.788 L720.344 162.871 L700.761 162.871 Q701.038 167.269 703.4 169.584 Q705.784 171.875 710.02 171.875 Q712.474 171.875 714.765 171.274 Q717.08 170.672 719.349 169.468 L719.349 173.496 Q717.057 174.468 714.65 174.977 Q712.242 175.487 709.765 175.487 Q703.562 175.487 699.927 171.875 Q696.316 168.264 696.316 162.107 Q696.316 155.741 699.742 152.014 Q703.191 148.264 709.025 148.264 Q714.256 148.264 717.288 151.644 Q720.344 155.001 720.344 160.788 M716.085 159.538 Q716.038 156.042 714.117 153.959 Q712.219 151.876 709.071 151.876 Q705.506 151.876 703.353 153.889 Q701.224 155.903 700.9 159.561 L716.085 159.538 Z" fill="#000000" fill-rule="nonzero" fill-opacity="1" /><path clip-path="url(#clip800)" d="M748.885 159.167 L748.885 174.815 L744.626 174.815 L744.626 159.306 Q744.626 155.626 743.191 153.797 Q741.756 151.968 738.885 151.968 Q735.436 151.968 733.446 154.167 Q731.455 156.366 731.455 160.163 L731.455 174.815 L727.173 174.815 L727.173 148.889 L731.455 148.889 L731.455 152.917 Q732.983 150.579 735.043 149.422 Q737.126 148.264 739.835 148.264 Q744.302 148.264 746.594 151.042 Q748.885 153.797 748.885 159.167 Z" fill="#000000" fill-rule="nonzero" fill-opacity="1" /><path clip-path="url(#clip800)" d="M761.594 141.528 L761.594 148.889 L770.367 148.889 L770.367 152.2 L761.594 152.2 L761.594 166.274 Q761.594 169.445 762.45 170.348 Q763.33 171.25 765.992 171.25 L770.367 171.25 L770.367 174.815 L765.992 174.815 Q761.061 174.815 759.186 172.987 Q757.311 171.135 757.311 166.274 L757.311 152.2 L754.186 152.2 L754.186 148.889 L757.311 148.889 L757.311 141.528 L761.594 141.528 Z" fill="#000000" fill-rule="nonzero" fill-opacity="1" /><path clip-path="url(#clip800)" d="M798.144 160.788 L798.144 162.871 L778.561 162.871 Q778.839 167.269 781.2 169.584 Q783.584 171.875 787.82 171.875 Q790.274 171.875 792.566 171.274 Q794.881 170.672 797.149 169.468 L797.149 173.496 Q794.857 174.468 792.45 174.977 Q790.043 175.487 787.566 175.487 Q781.362 175.487 777.728 171.875 Q774.117 168.264 774.117 162.107 Q774.117 155.741 777.543 152.014 Q780.992 148.264 786.825 148.264 Q792.056 148.264 795.089 151.644 Q798.144 155.001 798.144 160.788 M793.885 159.538 Q793.839 156.042 791.918 153.959 Q790.019 151.876 786.871 151.876 Q783.307 151.876 781.154 153.889 Q779.024 155.903 778.7 159.561 L793.885 159.538 Z" fill="#000000" fill-rule="nonzero" fill-opacity="1" /><path clip-path="url(#clip800)" d="M820.158 152.871 Q819.441 152.454 818.584 152.269 Q817.751 152.061 816.732 152.061 Q813.121 152.061 811.177 154.422 Q809.255 156.76 809.255 161.158 L809.255 174.815 L804.973 174.815 L804.973 148.889 L809.255 148.889 L809.255 152.917 Q810.598 150.556 812.751 149.422 Q814.904 148.264 817.982 148.264 Q818.422 148.264 818.955 148.334 Q819.487 148.38 820.135 148.496 L820.158 152.871 Z" fill="#000000" fill-rule="nonzero" fill-opacity="1" /><path clip-path="url(#clip800)" d="M841.153 149.653 L841.153 153.681 Q839.348 152.755 837.403 152.292 Q835.459 151.829 833.376 151.829 Q830.204 151.829 828.607 152.801 Q827.033 153.774 827.033 155.718 Q827.033 157.2 828.167 158.056 Q829.302 158.889 832.728 159.653 L834.186 159.977 Q838.723 160.95 840.621 162.732 Q842.542 164.491 842.542 167.663 Q842.542 171.274 839.672 173.38 Q836.825 175.487 831.825 175.487 Q829.741 175.487 827.473 175.07 Q825.228 174.676 822.728 173.866 L822.728 169.468 Q825.089 170.695 827.38 171.32 Q829.672 171.922 831.917 171.922 Q834.927 171.922 836.547 170.903 Q838.167 169.862 838.167 167.987 Q838.167 166.25 836.987 165.325 Q835.829 164.399 831.871 163.542 L830.39 163.195 Q826.431 162.362 824.672 160.649 Q822.913 158.913 822.913 155.903 Q822.913 152.246 825.505 150.255 Q828.098 148.264 832.866 148.264 Q835.228 148.264 837.311 148.612 Q839.394 148.959 841.153 149.653 Z" fill="#000000" fill-rule="nonzero" fill-opacity="1" /></svg>
